<?xml version="1.0" encoding="UTF-8"?>
<svg version="1.1" xmlns="http://www.w3.org/2000/svg" width="2048" height="2048">
<path d="M0 0 C87.78 0 175.56 0 266 0 C269.3 15.18 272.6 30.36 276 46 C278.31687442 56.60192925 278.31687442 56.60192925 280.63598633 67.20336914 C285.15616744 87.85695585 289.62286531 108.52087246 294.00878906 129.20336914 C297.73317614 146.7654543 301.48768557 164.32100944 305.25 181.875 C305.40962345 182.61984272 305.5692469 183.36468544 305.73370743 184.13209915 C310.61858792 206.92583735 315.51992135 229.71600069 320.43194962 252.50390244 C326.68564208 281.51624778 332.90684467 310.53550927 339.12104797 339.55633545 C341.43653573 350.36978837 343.75310382 361.18300948 346.0703125 371.99609375 C346.23855844 372.78120268 346.40680439 373.56631161 346.5801487 374.37521172 C347.41703587 378.28046835 348.25393907 382.18572154 349.09085083 386.0909729 C349.87775317 389.76288348 350.66462408 393.43480079 351.45145512 397.10672665 C351.75060433 398.50274472 352.04976992 399.89875928 352.34895229 401.29477024 C353.06848764 404.65228682 353.78775505 408.00986029 354.50639343 411.36756897 C355.77455325 417.29083804 357.04485325 423.21361069 358.32552052 429.1341877 C358.75631972 431.12622202 359.18631949 433.11842724 359.61607361 435.11068726 C360.14902847 437.57998412 360.68358829 440.04893529 361.21998596 442.51748657 C361.45475143 443.60661346 361.68951691 444.69574036 361.93139648 445.81787109 C362.24221413 447.25264297 362.24221413 447.25264297 362.55931091 448.71640015 C363 451 363 451 363 453 C366.96 453 370.92 453 375 453 C375.18284546 450.59158813 375.18284546 450.59158813 375.36938477 448.13452148 C375.87762647 442.58425644 376.85442096 437.27606114 378.08984375 431.84765625 C378.30520279 430.87383499 378.52056183 429.90001373 378.7424469 428.89668274 C379.21607157 426.75745387 379.69266928 424.61888158 380.171875 422.480896 C381.39685066 417.0115711 382.60151243 411.53777697 383.80746841 406.06423187 C384.25328574 404.04158916 384.69986032 402.01911452 385.14645386 399.99664307 C388.81799295 383.35280299 392.37292521 366.68393784 395.93531799 350.01646805 C397.47286412 342.8241387 399.01254554 335.63226587 400.55195999 328.44033623 C400.94798479 326.59012955 401.34397819 324.73991614 401.73994064 322.88969612 C406.32750985 301.45402822 410.93739563 280.02317165 415.54892349 258.59264755 C423.15526933 223.24378434 430.74524612 187.89146115 438.31578064 152.53491211 C441.00238386 139.98774785 443.69084148 127.44098137 446.37963867 114.89428711 C449.58660272 99.92956266 452.79326291 84.96477309 456 70 C463.425 35.35 463.425 35.35 471 0 C554.49 0 637.98 0 724 0 C725.47065895 2.9413179 724.41447597 4.52448849 723.44311523 7.63378906 C723.07273132 8.83191223 722.70234741 10.0300354 722.32073975 11.26446533 C721.90017432 12.5982325 721.47945383 13.93195078 721.05859375 15.265625 C720.62382876 16.66181414 720.18970038 18.05820165 719.75616455 19.45477295 C718.5732375 23.25865329 717.38104885 27.05957523 716.18722153 30.86004639 C714.92852767 34.87249612 713.67834392 38.88759654 712.42700195 42.90234375 C709.29654025 52.93862511 706.14968366 62.96973736 703 73 C702.5049564 74.57690185 702.00992045 76.1538061 701.51489258 77.73071289 C697.54868922 90.36378349 693.57861362 102.99563756 689.60137463 115.62523842 C683.45769937 135.13496101 677.37208323 154.6615682 671.34759521 174.20849609 C665.71386989 192.48640345 660.02604552 210.74693346 654.3125 229 C647.18885666 251.75844552 640.1107175 274.5305866 633.0625 297.3125 C625.70852927 321.08228027 618.30423307 344.83561777 610.84869385 368.57373047 C603.86699445 390.80374382 596.94594566 413.05187569 590.0625 435.3125 C582.32312188 460.3411553 574.51208414 485.34624742 566.63433838 510.33169556 C561.43560088 526.82094999 556.26979454 543.31939426 551.18359375 559.84375 C525.32562109 643.83790146 498.35516717 726.48156098 434.875 790.375 C433.9689502 791.29039551 433.06290039 792.20579102 432.12939453 793.14892578 C426.0609435 799.18884006 419.72697604 804.7066418 413 810 C412.32050293 810.53882813 411.64100586 811.07765625 410.94091797 811.6328125 C400.44431668 819.86805242 389.3947005 827.07784154 378 834 C377.4004248 834.3707666 376.80084961 834.7415332 376.18310547 835.12353516 C328.11392312 864.7645438 269.38036352 876.66146096 213.8125 881.75 C212.55099121 881.86561279 211.28948242 881.98122559 209.98974609 882.1003418 C167.43584921 885.7174505 124.63298368 884 82 884 C82 1121.6 82 1359.2 82 1604 C2.8 1604 -76.4 1604 -158 1604 C-158 1571.66 -158 1539.32 -158 1506 C-160.97 1506.33 -163.94 1506.66 -167 1507 C-169.03041878 1510.03132945 -170.18397431 1512.28845665 -171.4375 1515.625 C-172.17947551 1517.37377818 -172.93094771 1519.11855462 -173.69140625 1520.859375 C-174.0692627 1521.73013672 -174.44711914 1522.60089844 -174.83642578 1523.49804688 C-191.1100003 1558.48998806 -227.86709073 1585.22825495 -263.0546875 1598.26171875 C-275.40013499 1602.65763015 -287.78181797 1606.12100348 -300.625 1608.75 C-301.58881592 1608.94875732 -302.55263184 1609.14751465 -303.5456543 1609.35229492 C-320.20704223 1612.5901973 -336.74643903 1613.40896687 -353.6875 1613.375 C-354.71336212 1613.37445618 -355.73922424 1613.37391235 -356.7961731 1613.37335205 C-390.14400107 1613.29246648 -421.80777745 1608.10737386 -453 1596 C-453.69496582 1595.73106934 -454.38993164 1595.46213867 -455.10595703 1595.18505859 C-490.9353406 1581.04529462 -523.30668799 1554.96066556 -546 1524 C-546.42474609 1523.43071777 -546.84949219 1522.86143555 -547.28710938 1522.27490234 C-553.80266324 1513.53410447 -559.66393763 1504.50590986 -565 1495 C-565.45632813 1494.18982422 -565.91265625 1493.37964844 -566.3828125 1492.54492188 C-599.24317277 1433.54563865 -612.00355067 1363.10384343 -612.203125 1296.07421875 C-612.21010765 1294.60422743 -612.21714857 1293.13423639 -612.22424316 1291.66424561 C-612.24347072 1287.00532643 -612.24841732 1282.34645456 -612.25 1277.6875 C-612.25058914 1276.89423939 -612.25117828 1276.10097878 -612.25178528 1275.28367996 C-612.26413926 1251.71686768 -611.8986972 1228.41760012 -609 1205 C-608.71806988 1202.46752354 -608.43682313 1199.93497091 -608.15625 1197.40234375 C-604.84377807 1169.02281379 -598.91373058 1141.1482689 -590 1114 C-589.66806641 1112.97181152 -589.33613281 1111.94362305 -588.99414062 1110.88427734 C-581.53098358 1088.03647887 -571.44306501 1065.00854203 -558 1045 C-557.54947266 1044.32614258 -557.09894531 1043.65228516 -556.63476562 1042.95800781 C-550.00222729 1033.1243178 -542.90634046 1023.83921792 -535 1015 C-534.24904053 1014.15646973 -534.24904053 1014.15646973 -533.48291016 1013.29589844 C-527.66389471 1006.78896552 -521.7926902 1000.50821216 -515 995 C-513.91260599 994.08872591 -512.82538263 993.17724817 -511.73828125 992.265625 C-502.96539507 984.99029103 -493.89808854 978.64737567 -484 973 C-483.15969238 972.52030762 -482.31938477 972.04061523 -481.45361328 971.54638672 C-424.21190069 939.33821745 -350.75590428 932.22261896 -287.5625 949.625 C-256.42021438 958.7231777 -229.30711545 974.57173505 -206 997 C-205.32066406 997.61617187 -204.64132812 998.23234375 -203.94140625 998.8671875 C-188.23769799 1013.55880646 -174.54322745 1034.8847268 -167 1055 C-164.03 1055.33 -161.06 1055.66 -158 1056 C-158 942.15 -158 828.3 -158 711 C-47.625 710.5625 -47.625 710.5625 -13.21728516 710.43188477 C14.85533933 710.31982899 42.92774263 710.18266043 71 710 C71.97329317 709.99373439 72.94658634 709.98746878 73.94937325 709.9810133 C84.59437564 709.91170532 95.23893314 709.82628856 105.88341141 709.69907951 C108.54089005 709.66748966 111.19814133 709.64265732 113.85575485 709.62158394 C144.9207422 709.36215792 182.46554157 707.66083419 206.4375 685.0625 C213.40385228 677.72498961 215.66130416 669.39755988 215.86621094 659.45678711 C215.49024936 646.17696348 209.99441024 633.59079157 205.55778503 621.22427368 C202.77626899 613.45433293 200.24478883 605.61233423 197.73846436 597.75015259 C194.17404888 586.58745445 190.51123441 575.4620869 186.68396473 564.38674164 C186.42702481 563.64291764 186.17008489 562.89909365 185.90535891 562.13272953 C185.4098026 560.6989891 184.9139011 559.2653679 184.41753328 557.83190823 C180.62282528 546.86656027 176.97116571 535.86033067 173.40136564 524.81986523 C166.13986142 502.37408095 158.70702318 479.98676786 151.23703146 457.60968781 C149.48261199 452.35296615 147.73002786 447.09563256 145.97720337 441.83837891 C142.95544935 432.77596838 139.93263702 423.71391146 136.90908813 414.65209961 C132.52230049 401.5044575 128.13754479 388.35613838 123.75329387 375.20765018 C116.61491385 353.79953677 109.47541557 332.39179652 102.33496094 310.984375 C102.12250494 310.34742065 101.91004894 309.7104663 101.69115488 309.05421031 C98.4608073 299.36946107 95.23040937 289.68472863 92 280 C88.55498443 269.67188454 85.10998743 259.34376288 81.66503906 249.015625 C81.3465472 248.06077129 81.3465472 248.06077129 81.02162115 247.0866276 C73.68884731 225.1025976 66.35729132 203.11816166 59.02666569 181.13341522 C54.66160945 168.04268344 50.29550087 154.95230361 45.92794728 141.86240482 C42.9292971 132.87498302 39.93176231 123.88718967 36.935045 114.89912319 C35.21656588 109.74500887 33.49762607 104.59104962 31.77727127 99.43756104 C24.32119348 77.10105182 16.92858414 54.74574678 9.66501331 32.34580231 C9.39177846 31.50357856 9.11854361 30.66135482 8.83702892 29.79360914 C8.30752373 28.16091455 7.77855757 26.52804502 7.2501784 24.89498568 C6.02129439 21.10527615 4.77643455 17.32243075 3.49215126 13.55110168 C3.2568567 12.85783106 3.02156213 12.16456044 2.77913743 11.45028162 C2.14648716 9.59313721 1.50803021 7.73797371 0.86912251 5.88297272 C0 3 0 3 0 0 Z M-336.54931641 1168.32421875 C-355.98718909 1190.77820025 -364.98735542 1222.01518798 -368 1251 C-368.11214844 1252.03382812 -368.22429687 1253.06765625 -368.33984375 1254.1328125 C-372.48155572 1300.3157377 -366.18272033 1350.83621291 -335.75 1387.625 C-320.53129517 1405.42005877 -298.45836089 1416.88424448 -275.1875 1419.6875 C-273.45999927 1419.81637704 -271.73036859 1419.91819174 -270 1420 C-268.91460938 1420.05285156 -267.82921875 1420.10570312 -266.7109375 1420.16015625 C-242.14610943 1420.76507172 -218.98025906 1413.94750671 -200 1398 C-199.27167969 1397.41734375 -198.54335938 1396.8346875 -197.79296875 1396.234375 C-170.39514931 1373.39486177 -160.19568385 1335.04864824 -157 1301 C-156.5385434 1293.52514317 -156.56125108 1286.04828449 -156.625 1278.5625 C-156.62965271 1277.58142273 -156.63430542 1276.60034546 -156.63909912 1275.58953857 C-156.71875942 1261.23697079 -156.99738562 1247.08835371 -160 1233 C-160.19335938 1232.07251953 -160.38671875 1231.14503906 -160.5859375 1230.18945312 C-167.27803637 1199.26947779 -181.36097525 1169.65695155 -207.80859375 1150.9921875 C-217.89867077 1144.69360821 -228.40830729 1139.82361745 -240 1137 C-240.90234375 1136.77570313 -241.8046875 1136.55140625 -242.734375 1136.3203125 C-278.06911803 1129.03376945 -312.53616134 1142.09675189 -336.54931641 1168.32421875 Z " fill="#FEFEFE" transform="translate(955,222)"/>
<path d="M0 0 C3.89368063 0.00314748 7.78658892 -0.02035851 11.68017578 -0.0456543 C82.34935596 -0.22428748 153.84511352 18.15070505 211.92626953 59.31567383 C212.61414551 59.80003906 213.30202148 60.2844043 214.01074219 60.78344727 C223.85122749 67.76671652 232.6798877 75.4928718 241.37255859 83.84741211 C243.28988338 85.65929005 245.28154332 87.36926348 247.30126953 89.06567383 C251.94874111 93.08348797 255.91040281 97.67946997 259.92626953 102.31567383 C261.19277344 103.75040039 261.19277344 103.75040039 262.48486328 105.21411133 C334.59211214 187.74905556 336.92626953 290.40526769 336.92626953 395.31567383 C195.02626953 395.31567383 53.12626953 395.31567383 -93.07373047 395.31567383 C-92.74373047 396.30567383 -92.41373047 397.29567383 -92.07373047 398.31567383 C-91.90630576 399.77945911 -91.77942423 401.24810148 -91.67919922 402.71801758 C-88.9962527 438.42636908 -79.3215799 471.24569313 -52.74169922 496.53442383 C-28.41537175 517.42108319 3.27380649 519.90474457 33.92626953 518.31567383 C40.78588075 517.68545858 47.33083843 516.27048591 53.92626953 514.31567383 C54.65507324 514.10668457 55.38387695 513.89769531 56.13476562 513.68237305 C70.73559615 509.3747247 84.39980433 502.3197757 95.92626953 492.31567383 C97.13669922 491.3024707 97.13669922 491.3024707 98.37158203 490.26879883 C105.52673246 484.09830213 111.68065419 477.18409684 116.92626953 469.31567383 C119.86761761 468.8848505 119.86761761 468.8848505 123.70402527 468.80738831 C124.404351 468.78965721 125.10467673 468.77192611 125.82622445 468.7536577 C128.17226381 468.69881112 130.51804563 468.66615357 132.86450195 468.63427734 C134.53503305 468.60157812 136.20554847 468.56806877 137.87604809 468.53379917 C156.59005935 468.17827749 175.30848256 468.18581893 194.02508187 468.21427989 C198.97099929 468.22067771 203.91691783 468.22112984 208.86283875 468.2223053 C218.16184539 468.2253715 227.4608398 468.23351895 236.75984114 468.24365479 C247.37476396 468.25496534 257.98968748 468.26036339 268.60461485 468.26535022 C290.37850649 468.27570749 312.15238723 468.29321211 333.92626953 468.31567383 C332.9807401 476.2279131 331.16375972 483.67716066 328.92626953 491.31567383 C328.63091309 492.33298584 328.63091309 492.33298584 328.32958984 493.37084961 C317.82358154 528.83906684 297.98817209 560.65817625 273.18017578 587.83911133 C271.65204993 589.51819588 270.13941095 591.21148206 268.64111328 592.91723633 C264.02489404 598.15898099 259.28006764 602.84182524 253.92626953 607.31567383 C253.01619141 608.11360352 252.10611328 608.9115332 251.16845703 609.73364258 C203.72624032 651.17022562 142.95030803 672.86799069 81.23876953 681.56567383 C80.17368164 681.71673584 79.10859375 681.86779785 78.01123047 682.0234375 C56.51045272 684.8572822 35.03301751 685.69311681 13.36376953 685.62817383 C11.45996521 685.62543961 11.45996521 685.62543961 9.5177002 685.62265015 C-9.85636767 685.57590952 -28.87404001 685.05810453 -48.07373047 682.31567383 C-49.31251953 682.14406738 -50.55130859 681.97246094 -51.82763672 681.7956543 C-119.60575285 672.15123518 -183.17546343 645.8399264 -233.07373047 598.31567383 C-233.67266113 597.7454248 -234.2715918 597.17517578 -234.88867188 596.58764648 C-243.26899165 588.54902749 -250.87215471 580.27583801 -257.81933594 570.97143555 C-259.02017944 569.38635952 -260.26679432 567.83627465 -261.51513672 566.28833008 C-307.03883779 509.51157931 -326.80637755 430.46516131 -327.31201172 358.76489258 C-327.32180557 357.6041069 -327.33159943 356.44332123 -327.34169006 355.24736023 C-327.95853326 263.01222109 -309.8395671 167.53462901 -244.54638672 97.97583008 C-242.5445115 95.82215389 -240.64185338 93.63586399 -238.76123047 91.37817383 C-229.4840832 80.73154291 -218.34011094 71.75428855 -207.07373047 63.31567383 C-206.52813477 62.9025293 -205.98253906 62.48938477 -205.42041016 62.0637207 C-195.14569933 54.32241619 -184.21570166 47.72612301 -173.07373047 41.31567383 C-172.02475586 40.7065918 -172.02475586 40.7065918 -170.95458984 40.08520508 C-137.37580254 20.77493093 -98.78663515 10.08907615 -60.76123047 4.06567383 C-59.33399658 3.83883911 -59.33399658 3.83883911 -57.87792969 3.60742188 C-38.61454401 0.752572 -19.45662144 -0.03270631 0 0 Z M-55.07373047 189.31567383 C-55.85103516 190.01305664 -56.62833984 190.71043945 -57.42919922 191.42895508 C-70.35003131 203.59366275 -78.68712301 219.69162123 -84.38623047 236.31567383 C-84.61656982 236.97784912 -84.84690918 237.64002441 -85.08422852 238.32226562 C-87.54280279 245.9199368 -88.57179142 253.30533224 -90.07373047 261.31567383 C-23.41373047 261.31567383 43.24626953 261.31567383 111.92626953 261.31567383 C107.52825607 239.32560654 101.61991081 217.85141207 86.92626953 200.31567383 C85.88019531 199.04530273 85.88019531 199.04530273 84.81298828 197.74926758 C68.12923721 178.33921971 46.04935833 167.65020636 20.66845703 165.47583008 C-7.02462358 163.85842793 -34.29753134 170.06372535 -55.07373047 189.31567383 Z " fill="#FEFEFE" transform="translate(1368.07373046875,1156.684326171875)"/>
<path d="M0 0 C1.19880798 0.00093658 2.39761597 0.00187317 3.63275146 0.00283813 C21.38867396 0.03289477 39.02482466 0.18281068 56.6875 2.1875 C57.35644287 2.26291016 58.02538574 2.33832031 58.71459961 2.41601562 C127.57255651 10.26128814 195.64630739 31.49548362 246.6875 80.1875 C247.53957031 80.98671875 248.39164063 81.7859375 249.26953125 82.609375 C264.72110871 97.50128902 276.82208985 115.71790941 285.6875 135.1875 C286.15349609 136.20432861 286.15349609 136.20432861 286.62890625 137.24169922 C293.26180896 151.92636301 297.30382655 166.85700745 299.5 182.8125 C299.62407227 183.69309082 299.74814453 184.57368164 299.87597656 185.48095703 C300.94994301 194.18515412 300.6875 202.21969595 300.6875 211.1875 C228.7475 211.1875 156.8075 211.1875 82.6875 211.1875 C81.0375 206.2375 79.3875 201.2875 77.6875 196.1875 C75.41583469 192.57717477 73.32759736 189.45207004 70.6875 186.1875 C69.965625 185.176875 69.24375 184.16625 68.5 183.125 C54.82227482 167.45537309 32.56814408 160.70401816 12.6875 158.1875 C8.45348605 157.90752422 4.24239743 157.85301867 0 157.875 C-1.70119995 157.88237183 -1.70119995 157.88237183 -3.43676758 157.88989258 C-22.82888996 158.15840524 -43.80801793 161.84475191 -58.625 175.28515625 C-66.66145327 183.66138604 -69.75204339 193.61784577 -69.58203125 205.0859375 C-68.8126727 213.93913588 -66.1473756 221.7901244 -59.80078125 228.13671875 C-46.05012673 239.46967577 -28.27440256 244.0363388 -11.19921875 247.80859375 C-10.07306152 248.05779068 -8.9469043 248.30698761 -7.78662109 248.56373596 C11.67730448 252.78212244 31.28605736 256.32209572 50.85754395 259.99914551 C60.68734723 261.84662531 70.51576072 263.70149081 80.34375 265.55859375 C81.39777952 265.75772936 82.45180904 265.95686497 83.53777885 266.16203499 C97.19459969 268.74426941 110.84268747 271.36530341 124.47265625 274.0859375 C125.51155502 274.29252141 125.51155502 274.29252141 126.57144165 274.50327873 C158.83763121 280.93165755 192.12897721 289.31644195 221.6875 304.1875 C222.57115234 304.61998047 223.45480469 305.05246094 224.36523438 305.49804688 C243.42327601 314.85381277 259.95667166 325.96081461 275.6875 340.1875 C276.69490234 341.08662109 276.69490234 341.08662109 277.72265625 342.00390625 C305.41696349 368.12690528 318.37389556 407.18712362 319.81298828 444.43554688 C321.4887868 504.56218734 303.15275702 556.89221656 262.0859375 600.98046875 C256.3290132 606.87446268 250.163593 612.10411517 243.6875 617.1875 C242.6665625 618.0021875 241.645625 618.816875 240.59375 619.65625 C172.4345289 673.56001589 80.39566959 688.02048505 -4.3125 686.1875 C-5.35744629 686.16816406 -6.40239258 686.14882813 -7.47900391 686.12890625 C-82.53783047 684.58481301 -165.3197971 671.4525936 -227.3125 626.1875 C-227.86019043 625.78853516 -228.40788086 625.38957031 -228.97216797 624.97851562 C-244.77854078 613.35191508 -259.11934195 600.60111009 -271.3125 585.1875 C-272.12976563 584.17558594 -272.94703125 583.16367187 -273.7890625 582.12109375 C-293.00473279 558.06514788 -304.74754353 529.62835101 -311.1875 499.6875 C-311.39101074 498.74527588 -311.59452148 497.80305176 -311.80419922 496.83227539 C-313.34363252 489.17316078 -313.74420062 482.14369129 -314.3125 474.1875 C-237.7525 474.1875 -161.1925 474.1875 -82.3125 474.1875 C-80.3325 478.8075 -78.3525 483.4275 -76.3125 488.1875 C-73.70648633 492.01755039 -71.19251974 495.60205032 -68.3125 499.1875 C-67.36310547 500.44433594 -67.36310547 500.44433594 -66.39453125 501.7265625 C-52.56550532 518.07231548 -28.34802118 525.0023244 -7.82714844 527.01977539 C17.73083181 528.72446786 45.84432354 528.27374055 67.6875 513.1875 C68.595 512.61 69.5025 512.0325 70.4375 511.4375 C76.84201441 505.03298559 80.863817 496.54658989 81.06787109 487.47851562 C81.0481799 479.9958623 80.48201839 473.7892483 76.6875 467.1875 C76.28660156 466.48238281 75.88570312 465.77726562 75.47265625 465.05078125 C64.55231258 448.43286697 38.52563419 443.15563803 20.3311615 439.34217834 C19.26152664 439.12355637 18.19189178 438.90493439 17.08984375 438.6796875 C15.88465591 438.4318602 14.67946808 438.1840329 13.4377594 437.92869568 C-0.12083968 435.16438663 -13.72121833 432.61184352 -27.31640625 430.03515625 C-29.1524366 429.68698569 -29.1524366 429.68698569 -31.02555847 429.33178139 C-42.56913122 427.14322803 -54.11309764 424.95679297 -65.65991211 422.78540039 C-72.03604251 421.58604696 -78.41057584 420.37848813 -84.78422356 419.16601372 C-87.16922123 418.7138471 -89.55476485 418.26454789 -91.94091988 417.81852913 C-114.31861265 413.63378187 -136.83940144 409.00524887 -158.3125 401.3125 C-159.50907227 400.89105713 -160.70564453 400.46961426 -161.93847656 400.03540039 C-172.33541155 396.30776305 -182.40895053 392.0718 -192.3125 387.1875 C-193.03791992 386.83365234 -193.76333984 386.47980469 -194.51074219 386.11523438 C-210.27626947 378.34959419 -225.0875517 368.78313467 -238.3125 357.1875 C-239.14910156 356.46046875 -239.98570312 355.7334375 -240.84765625 354.984375 C-243.3707252 352.75377927 -245.84834826 350.48292797 -248.3125 348.1875 C-249.10140625 347.46433594 -249.8903125 346.74117187 -250.703125 345.99609375 C-263.02651556 334.24911985 -272.62079954 320.31109562 -280.3125 305.1875 C-280.66151367 304.51251465 -281.01052734 303.8375293 -281.37011719 303.14208984 C-292.93960754 280.5629232 -299.37712317 255.2720781 -299.515625 229.859375 C-299.52607849 228.56455452 -299.52607849 228.56455452 -299.53674316 227.24357605 C-299.5540374 224.47483388 -299.56046216 221.70629392 -299.5625 218.9375 C-299.56350708 217.99375519 -299.56451416 217.05001038 -299.56555176 216.07766724 C-299.55577084 202.55799176 -299.18696648 189.44624508 -296.3125 176.1875 C-296.16796387 175.46530273 -296.02342773 174.74310547 -295.87451172 173.99902344 C-294.87146975 169.00714015 -293.67495822 164.09304296 -292.3125 159.1875 C-292.02947021 158.15955322 -292.02947021 158.15955322 -291.74072266 157.11083984 C-286.46431006 138.53320041 -278.0106389 119.607774 -266.3125 104.1875 C-265.55710937 103.15238281 -264.80171875 102.11726563 -264.0234375 101.05078125 C-258.00265604 92.90935886 -251.30551246 85.49928226 -244.3125 78.1875 C-243.67570312 77.50945312 -243.03890625 76.83140625 -242.3828125 76.1328125 C-229.52805696 62.7860089 -213.39759325 52.23375938 -197.3125 43.1875 C-196.5405127 42.7529248 -195.76852539 42.31834961 -194.97314453 41.87060547 C-181.52467332 34.38445825 -167.77551274 28.42231346 -153.3125 23.1875 C-152.46284668 22.87329102 -151.61319336 22.55908203 -150.73779297 22.23535156 C-102.86918153 4.65632396 -50.63985367 -0.05114783 0 0 Z " fill="#FEFEFE" transform="translate(702.3125,205.8125)"/>
</svg>
