<svg version="1.2" xmlns="http://www.w3.org/2000/svg" viewBox="0 0 2048 2048" width="2048" height="2048">
	<style>
		.s0 { fill: #fefefe } 
	</style>
	<path class="s0" d="m939.2 40.83c107.55 0 215.11 0 325.93 0 4.04 18.6 8.09 37.2 12.25 56.37 2.84 12.99 2.84 12.99 5.68 25.98q8.32 37.96 16.39 75.97 6.85 32.28 13.77 64.54 0.29 1.36 0.59 2.76 8.98 41.9 18.01 83.78 11.49 53.32 22.9 106.67 4.26 19.87 8.52 39.74 0.31 1.44 0.62 2.92 1.54 7.18 3.08 14.35 1.45 6.75 2.89 13.5 0.55 2.57 1.1 5.13 1.32 6.17 2.65 12.35 2.32 10.88 4.68 21.77 0.79 3.66 1.58 7.32 0.98 4.54 1.96 9.07 0.43 2 0.87 4.05c0.38 1.76 0.38 1.76 0.77 3.55 0.54 2.8 0.54 2.8 0.54 5.25 4.85 0 9.71 0 14.71 0 0.22-2.95 0.22-2.95 0.45-5.96 0.62-6.8 1.82-13.31 3.33-19.96q0.4-1.78 0.8-3.62 0.87-3.93 1.75-7.86 2.25-10.05 4.46-20.11 0.82-3.72 1.64-7.44c4.5-20.39 8.85-40.82 13.22-61.24q2.83-13.22 5.66-26.44 0.72-3.4 1.45-6.8 8.44-39.39 16.92-78.78 13.98-64.97 27.9-129.95 4.94-23.06 9.88-46.12 5.89-27.51 11.79-55.01c9.09-42.46 9.09-42.46 18.38-85.78 102.3 0 204.6 0 310 0 1.8 3.61 0.51 5.55-0.68 9.36q-0.68 2.19-1.38 4.45-0.77 2.45-1.55 4.9-0.79 2.57-1.59 5.13-2.18 6.99-4.37 13.98-2.32 7.37-4.61 14.75-5.76 18.45-11.55 36.88-0.91 2.9-1.82 5.8-7.29 23.22-14.6 46.43-11.29 35.86-22.37 71.78-10.36 33.59-20.87 67.14-13.09 41.83-26.04 83.7-13.51 43.69-27.22 87.32-12.82 40.86-25.47 81.78-14.22 46-28.7 91.92-9.57 30.3-18.93 60.66c-31.69 102.92-64.74 204.19-142.52 282.48q-1.66 1.67-3.36 3.4c-7.44 7.4-15.2 14.16-23.44 20.64q-1.24 0.99-2.52 2c-12.87 10.09-26.41 18.93-40.37 27.41q-1.09 0.68-2.22 1.38c-58.9 36.32-130.87 50.89-198.96 57.13q-2.3 0.21-4.68 0.43c-52.14 4.43-104.59 2.33-156.83 2.33 0 291.13 0 582.26 0 882.22-97.04 0-194.09 0-294.07 0 0-39.63 0-79.26 0-120.08-3.64 0.4-7.28 0.81-11.03 1.22-2.49 3.72-3.9 6.48-5.44 10.57q-1.36 3.21-2.76 6.41-0.69 1.6-1.4 3.24c-19.94 42.87-64.98 75.64-108.1 91.61-15.12 5.38-30.29 9.63-46.03 12.85q-1.76 0.36-3.58 0.73c-20.42 3.97-40.68 4.98-61.44 4.93q-1.88 0-3.81 0c-40.86-0.1-79.66-6.45-117.88-21.29q-1.27-0.49-2.58-0.99c-43.9-17.33-83.56-49.29-111.37-87.23q-0.78-1.04-1.58-2.11c-7.98-10.71-15.16-21.77-21.7-33.42q-0.84-1.48-1.7-3.01c-40.26-72.29-55.9-158.61-56.14-240.74q-0.01-2.7-0.03-5.4-0.03-8.56-0.03-17.13 0-1.45 0-2.94c-0.01-28.88 0.43-57.43 3.98-86.12q0.52-4.66 1.04-9.31c4.06-34.77 11.32-68.93 22.25-102.19q0.6-1.88 1.23-3.82c9.14-28 21.5-56.21 37.98-80.73q0.82-1.23 1.67-2.5c8.13-12.05 16.82-23.43 26.51-34.26 0.92-1.03 0.92-1.03 1.86-2.09 7.13-7.97 14.32-15.67 22.64-22.42q2-1.67 4-3.35c10.75-8.91 21.86-16.68 33.99-23.6q1.53-0.88 3.12-1.78c70.14-39.47 160.14-48.19 237.57-26.86 38.16 11.14 71.38 30.56 99.94 58.05q1.25 1.12 2.53 2.28c19.24 18.01 36.02 44.14 45.26 68.78 3.64 0.41 7.28 0.81 11.03 1.23 0-139.5 0-279 0-422.73 135.24-0.54 135.24-0.54 177.4-0.7q51.6-0.2 103.19-0.53 1.78-0.01 3.62-0.02 19.56-0.12 39.13-0.35 4.88-0.05 9.76-0.09c38.07-0.32 84.07-2.4 113.45-30.09 8.53-8.99 11.3-19.2 11.55-31.38-0.46-16.27-7.2-31.69-12.63-46.85-3.41-9.52-6.51-19.12-9.58-28.76-4.37-13.68-8.86-27.31-13.55-40.88q-0.47-1.36-0.95-2.76-0.91-2.64-1.83-5.27c-4.65-13.44-9.12-26.92-13.49-40.45-8.9-27.5-18.01-54.93-27.16-82.35q-3.23-9.66-6.45-19.33-5.55-16.65-11.11-33.31-8.06-24.16-16.12-48.33-13.12-39.35-26.24-78.69-0.39-1.17-0.79-2.37-5.94-17.8-11.88-35.6-6.33-18.98-12.66-37.96c-0.39-1.17-0.39-1.17-0.79-2.37q-13.47-40.4-26.95-80.81-8.02-24.06-16.05-48.12-5.51-16.52-11.02-33.04-3.16-9.47-6.32-18.94c-9.13-27.37-18.19-54.77-27.09-82.21q-0.5-1.54-1.02-3.13-0.97-3-1.94-6-2.25-6.97-4.6-13.9-0.43-1.27-0.88-2.58-1.16-3.41-2.34-6.82c-1.06-3.53-1.06-3.53-1.06-7.21zm-412.38 1431.56c-23.82 27.51-34.85 65.79-38.54 101.3q-0.2 1.89-0.41 3.84c-5.08 56.59 2.64 118.49 39.93 163.57 18.65 21.81 45.69 35.85 74.21 39.29q3.17 0.23 6.35 0.38 1.99 0.1 4.03 0.2c30.1 0.74 58.49-7.62 81.75-27.16q1.33-1.06 2.7-2.16c33.57-27.99 46.07-74.97 49.98-116.69 0.57-9.16 0.54-18.32 0.46-27.49q-0.01-1.8-0.01-3.65c-0.1-17.58-0.44-34.92-4.12-52.18q-0.36-1.7-0.72-3.45c-8.2-37.88-25.46-74.17-57.86-97.04-12.37-7.71-25.24-13.68-39.45-17.14q-1.65-0.41-3.35-0.83c-43.29-8.93-85.53 7.07-114.95 39.21z"/>
	<path class="s0" d="m1445.34 1186.11q7.15 0 14.31-0.06c86.59-0.22 174.2 22.3 245.36 72.74q1.26 0.89 2.56 1.8c12.05 8.55 22.87 18.02 33.52 28.26 2.35 2.22 4.79 4.31 7.27 6.39 5.69 4.93 10.55 10.56 15.47 16.24 1.55 1.76 1.55 1.76 3.13 3.55 88.36 101.13 91.22 226.92 91.22 355.46-173.87 0-347.75 0-526.89 0q0.61 1.81 1.23 3.68 0.3 2.69 0.48 5.39c3.29 43.76 15.15 83.97 47.71 114.96 29.81 25.59 68.64 28.63 106.2 26.69 8.4-0.78 16.42-2.51 24.5-4.91q1.34-0.38 2.71-0.77c17.89-5.28 34.63-13.92 48.76-26.18 1.48-1.24 1.48-1.24 2.99-2.51 8.77-7.56 16.31-16.03 22.74-25.67 3.6-0.53 3.6-0.53 8.3-0.63q1.28-0.03 2.6-0.06 4.32-0.1 8.63-0.15 3.07-0.06 6.14-0.12c22.93-0.44 45.87-0.43 68.8-0.39q9.09 0.01 18.18 0.01 17.09 0 34.18 0.02 19.51 0.02 39.02 0.03 40.02 0.02 80.04 0.06c-1.16 9.69-3.38 18.82-6.13 28.18-0.36 1.25-0.36 1.25-0.73 2.52-12.87 43.46-37.17 82.45-67.57 115.75q-2.81 3.09-5.56 6.23c-5.66 6.42-11.47 12.16-18.03 17.64q-1.67 1.46-3.38 2.96c-58.13 50.77-132.6 77.36-208.22 88.02q-1.95 0.27-3.95 0.56c-26.35 3.47-52.67 4.49-79.22 4.41-2.33 0-2.33 0-4.71 0-23.74-0.06-47.04-0.69-70.57-4.05q-2.26-0.32-4.6-0.64c-83.05-11.82-160.94-44.06-222.08-102.29q-1.09-1.04-2.22-2.12c-10.27-9.85-19.59-19.98-28.1-31.39-1.47-1.94-3-3.84-4.53-5.73-55.78-69.57-80-166.43-80.62-254.28q-0.02-2.13-0.04-4.31c-0.75-113.02 21.45-230.01 101.45-315.24 2.46-2.64 4.79-5.32 7.09-8.08 11.37-13.05 25.02-24.05 38.83-34.39q1-0.75 2.03-1.53c12.59-9.49 25.98-17.57 39.63-25.43 1.29-0.74 1.29-0.74 2.6-1.5 41.14-23.66 88.42-36.76 135.02-44.14 1.75-0.28 1.75-0.28 3.53-0.56 23.6-3.5 47.08-4.46 70.92-4.42zm-67.48 231.97q-1.43 1.27-2.89 2.59c-15.83 14.9-26.05 34.63-33.03 55q-0.42 1.21-0.86 2.46c-3.01 9.31-4.27 18.36-6.11 28.17 81.68 0 163.36 0 247.51 0-5.39-26.94-12.63-53.26-30.63-74.74-1.28-1.56-1.28-1.56-2.59-3.15-20.44-23.78-47.5-36.88-78.6-39.54-33.93-1.98-67.35 5.62-92.8 29.21z"/>
	<path class="s0" d="m629.58 21q2.19 0 4.45 0c21.75 0.04 43.36 0.22 65.01 2.68q1.22 0.14 2.48 0.28c84.37 9.61 167.78 35.63 230.32 95.29q1.56 1.47 3.17 2.97c18.93 18.25 33.76 40.57 44.62 64.43 0.57 1.24 0.57 1.24 1.16 2.51 8.12 18 13.08 36.29 15.77 55.84q0.22 1.61 0.46 3.27c1.31 10.67 0.99 20.51 0.99 31.5-88.15 0-176.3 0-267.12 0-2.02-6.07-4.04-12.13-6.12-18.38-2.79-4.42-5.34-8.25-8.58-12.25q-1.32-1.85-2.68-3.76c-16.76-19.2-44.03-27.47-68.39-30.55-5.19-0.34-10.35-0.41-15.54-0.38-2.09 0-2.09 0-4.21 0.01-23.77 0.33-49.47 4.85-67.63 21.32-9.84 10.26-13.63 22.46-13.42 36.51 0.94 10.85 4.21 20.47 11.98 28.25 16.85 13.88 38.63 19.48 59.55 24.1q2.06 0.46 4.19 0.93c23.85 5.17 47.87 9.5 71.85 14.01q18.07 3.4 36.13 6.81 1.93 0.36 3.92 0.74c16.73 3.16 33.45 6.38 50.15 9.71 1.28 0.25 1.28 0.25 2.58 0.51 39.53 7.88 80.32 18.15 116.54 36.37q1.62 0.79 3.28 1.61c23.35 11.46 43.61 25.07 62.89 42.5 1.23 1.11 1.23 1.11 2.49 2.23 33.94 32.01 49.81 79.87 51.58 125.51 2.05 73.67-20.42 137.79-70.74 191.82-7.05 7.22-14.61 13.63-22.54 19.85q-1.87 1.49-3.79 3.03c-83.52 66.05-196.29 83.77-300.09 81.52q-1.91-0.04-3.88-0.07c-91.97-1.89-193.4-17.98-269.36-73.45q-1-0.73-2.03-1.48c-19.37-14.25-36.94-29.87-51.88-48.76q-1.5-1.85-3.04-3.75c-23.54-29.48-37.93-64.32-45.82-101.01q-0.38-1.72-0.76-3.5c-1.89-9.38-2.38-18-3.07-27.74 93.81 0 187.62 0 284.27 0 2.42 5.66 4.85 11.32 7.35 17.15 3.19 4.69 6.27 9.08 9.8 13.48 1.17 1.54 1.17 1.54 2.35 3.11 16.95 20.03 46.62 28.52 71.77 30.99 31.31 2.09 65.76 1.54 92.52-16.95q1.66-1.05 3.37-2.14c7.85-7.85 12.78-18.25 13.03-29.36-0.02-9.17-0.72-16.77-5.37-24.86q-0.73-1.29-1.49-2.62c-13.38-20.36-45.27-26.83-67.56-31.5q-1.96-0.4-3.97-0.81-2.21-0.46-4.48-0.92c-16.61-3.39-33.28-6.52-49.93-9.68-2.25-0.42-2.25-0.42-4.55-0.86q-21.21-4.02-42.44-8.02-11.72-2.2-23.43-4.43-4.38-0.83-8.77-1.65c-27.42-5.13-55.01-10.8-81.32-20.23q-2.19-0.77-4.45-1.56c-12.74-4.57-25.08-9.76-37.22-15.75q-1.32-0.64-2.69-1.31c-19.32-9.52-37.46-21.24-53.67-35.45q-1.53-1.33-3.11-2.7-4.62-4.1-9.14-8.32-1.44-1.33-2.93-2.69c-15.1-14.39-26.86-31.47-36.28-50q-0.64-1.24-1.3-2.51c-14.17-27.66-22.06-58.65-22.23-89.79-0.01-1.59-0.01-1.59-0.03-3.21q-0.03-5.09-0.03-10.17 0-1.73 0-3.51c0.01-16.56 0.46-32.63 3.98-48.88q0.27-1.32 0.54-2.68c1.23-6.11 2.69-12.14 4.36-18.15 0.35-1.26 0.35-1.26 0.7-2.54 6.47-22.76 16.83-45.95 31.16-64.85q1.38-1.89 2.81-3.84c7.37-9.98 15.58-19.06 24.15-28.02q1.16-1.24 2.36-2.51c15.75-16.36 35.52-29.29 55.23-40.37q1.41-0.8 2.86-1.62c16.48-9.17 33.33-16.47 51.05-22.89q1.56-0.57 3.16-1.16c58.65-21.54 122.65-27.31 184.7-27.25z"/>
</svg>